<?xml version="1.0"?>
<svg xmlns="http://www.w3.org/2000/svg" height="512px" viewBox="-16 0 480 480.00319" width="512px" class=""><g><path d="m40 384.003906v48c0 4.417969 3.582031 8 8 8h256c4.417969 0 8-3.582031 8-8v-24h32v32c-.050781 17.652344-14.347656 31.945313-32 32h-272c-17.648438-.054687-31.945312-14.347656-32-32v-96h32zm0 0" fill="#bddbff" data-original="#BDDBFF" class=""/><path d="m32 296.003906h-24v-208c.054688-17.652344 14.351562-31.949218 32-32h96c-17.671875 0-32 14.324219-32 32h-56c-4.417969 0-8 3.582032-8 8v200zm0 0" fill="#bddbff" data-original="#BDDBFF" class=""/><path d="m344 88.003906v160h-32v-152c0-4.417968-3.582031-8-8-8h-56c0-17.675781-14.324219-32-32-32h96c17.652344.050782 31.949219 14.347656 32 32zm0 0" fill="#bddbff" data-original="#BDDBFF" class=""/><path d="m88 272.003906h64v32h-64zm0 0" fill="#bddbff" data-original="#BDDBFF" class=""/><path d="m152 176.003906v48h-64v-64h64zm0 0" fill="#bddbff" data-original="#BDDBFF" class=""/><path d="m216 56.003906c17.675781 0 32 14.324219 32 32v16h-144v-16c0-17.675781 14.328125-32 32-32h16v-24c-.007812-6.59375 2.695312-12.902344 7.476562-17.441406s11.222657-6.910156 17.804688-6.558594c13.042969 1.203125 22.953125 12.261719 22.71875 25.359375v22.640625zm0 0" fill="#bddbff" data-original="#BDDBFF" class=""/><path d="m424 248.003906h-208c-8.824219.027344-15.972656 7.171875-16 16v128c.027344 8.824219 7.175781 15.972656 16 16h208c8.828125-.027344 15.976562-7.175781 16-16v-128c-.023438-8.828125-7.171875-15.972656-16-16zm-144 64h-48v-32h48zm112 64c-4.613281 0-8.996094-2.019531-12-5.519531-3 3.5-7.382812 5.519531-12 5.519531-8.835938 0-16-7.164062-16-16 0-8.835937 7.164062-16 16-16 4.617188 0 9 2.015625 12 5.519532 3.003906-3.503907 7.386719-5.519532 12-5.519532 8.839844 0 16 7.164063 16 16 0 8.835938-7.160156 16-16 16zm0 0" fill="#bddbff" data-original="#BDDBFF" class=""/><g fill="#3d9ae2"><path d="m16 88.003906c0-13.253906 10.746094-24 24-24h64.210938c-3.636719 4.710938-6.167969 10.179688-7.402344 16h-48.808594c-8.835938 0-16 7.164063-16 16v200h16v-200h48v8c0 4.417969 3.582031 8 8 8h144c4.417969 0 8-3.582031 8-8v-8h48v128h16v-128c0-8.835937-7.160156-16-16-16h-48.796875c-1.234375-5.820312-3.765625-11.289062-7.402344-16h64.199219c13.257812 0 24 10.746094 24 24v136h16v-136c-.023438-22.082031-17.917969-39.972656-40-40h-104v-14.640625c.367188-17.390625-12.9375-32.027343-30.285156-33.3124998-8.785156-.5000002-17.378906 2.6718748-23.738282 8.7539068-6.351562 6.046874-9.957031 14.425781-9.976562 23.199218v16h-104c-22.078125.027344-39.9726562 17.917969-40 40v208h16zm136-24c4.417969 0 8-3.582031 8-8v-24c-.003906-4.398437 1.800781-8.605468 4.988281-11.632812 3.191407-3.023438 7.484375-4.605469 11.878907-4.367188 8.804687.945313 15.398437 8.507813 15.132812 17.359375v22.640625c0 4.417969 3.582031 8 8 8h16c13.257812 0 24 10.746094 24 24v8h-128v-8c0-13.253906 10.746094-24 24-24zm0 0" data-original="#3D9AE2" class="active-path" style="fill:#25BDA4" data-old_color="#3D9AE2"/><path d="m336 440.003906c0 13.253906-10.742188 24-24 24h-272c-13.253906 0-24-10.746094-24-24v-96h-16v96c.0273438 22.078125 17.921875 39.972656 40 40h272c22.082031-.027344 39.976562-17.921875 40-40v-8h-16zm0 0" data-original="#3D9AE2" class="active-path" style="fill:#25BDA4" data-old_color="#3D9AE2"/><path d="m168 32.003906h16v16h-16zm0 0" data-original="#3D9AE2" class="active-path" style="fill:#25BDA4" data-old_color="#3D9AE2"/><path d="m80 160.003906v64c0 4.417969 3.582031 8 8 8h64c4.417969 0 8-3.582031 8-8v-24h-16v16h-48v-48h40v-16h-48c-4.417969 0-8 3.582032-8 8zm0 0" data-original="#3D9AE2" class="active-path" style="fill:#25BDA4" data-old_color="#3D9AE2"/><path d="m80 296.003906h16v-16h48v16h16v-24c0-4.417968-3.582031-8-8-8h-64c-4.417969 0-8 3.582032-8 8zm0 0" data-original="#3D9AE2" class="active-path" style="fill:#25BDA4" data-old_color="#3D9AE2"/><path d="m109.65625 170.347656-11.3125 11.3125 24 24c3.125 3.121094 8.191406 3.121094 11.3125 0l40-40-11.3125-11.3125-34.34375 34.34375zm0 0" data-original="#3D9AE2" class="active-path" style="fill:#25BDA4" data-old_color="#3D9AE2"/><path d="m48 448.003906h256c8.839844 0 16-7.164062 16-16h-272v-88h-16v88c0 8.835938 7.164062 16 16 16zm0 0" data-original="#3D9AE2" class="active-path" style="fill:#25BDA4" data-old_color="#3D9AE2"/><path d="m200 160.003906h48v16h-48zm0 0" data-original="#3D9AE2" class="active-path" style="fill:#25BDA4" data-old_color="#3D9AE2"/><path d="m200 192.003906h80v16h-80zm0 0" data-original="#3D9AE2" class="active-path" style="fill:#25BDA4" data-old_color="#3D9AE2"/><path d="m424 240.003906h-208c-13.253906 0-24 10.746094-24 24v128c0 13.253906 10.746094 24 24 24h208c13.257812 0 24-10.746094 24-24v-128c0-13.253906-10.742188-24-24-24zm8 152c0 4.417969-3.582031 8-8 8h-208c-4.417969 0-8-3.582031-8-8v-128c0-4.417968 3.582031-8 8-8h208c4.417969 0 8 3.582032 8 8zm0 0" data-original="#3D9AE2" class="active-path" style="fill:#25BDA4" data-old_color="#3D9AE2"/><path d="m392 336.003906c-4.207031.039063-8.332031 1.203125-11.941406 3.367188-3.644532-2.183594-7.808594-3.34375-12.058594-3.367188-13.253906 0-24 10.746094-24 24s10.746094 24 24 24c4.25-.023437 8.414062-1.1875 12.058594-3.367187 3.609375 2.164062 7.734375 3.324219 11.941406 3.367187 13.257812 0 24-10.746094 24-24s-10.742188-24-24-24zm-24 32c-4.417969 0-8-3.582031-8-8 0-4.417968 3.582031-8 8-8s8 3.582032 8 8c0 4.417969-3.582031 8-8 8zm24 0c-.464844-.058594-.925781-.160156-1.375-.304687 1.835938-4.964844 1.835938-10.425781 0-15.390625.449219-.144532.910156-.246094 1.375-.304688 4.417969 0 8 3.582032 8 8 0 4.417969-3.582031 8-8 8zm0 0" data-original="#3D9AE2" class="active-path" style="fill:#25BDA4" data-old_color="#3D9AE2"/><path d="m232 320.003906h48c4.417969 0 8-3.582031 8-8v-32c0-4.417968-3.582031-8-8-8h-48c-4.417969 0-8 3.582032-8 8v32c0 4.417969 3.582031 8 8 8zm8-32h32v16h-32zm0 0" data-original="#3D9AE2" class="active-path" style="fill:#25BDA4" data-old_color="#3D9AE2"/><path d="m400 280.003906h16v32h-16zm0 0" data-original="#3D9AE2" class="active-path" style="fill:#25BDA4" data-old_color="#3D9AE2"/><path d="m368 280.003906h16v32h-16zm0 0" data-original="#3D9AE2" class="active-path" style="fill:#25BDA4" data-old_color="#3D9AE2"/><path d="m336 280.003906h16v32h-16zm0 0" data-original="#3D9AE2" class="active-path" style="fill:#25BDA4" data-old_color="#3D9AE2"/><path d="m224 368.003906h16v16h-16zm0 0" data-original="#3D9AE2" class="active-path" style="fill:#25BDA4" data-old_color="#3D9AE2"/><path d="m256 368.003906h16v16h-16zm0 0" data-original="#3D9AE2" class="active-path" style="fill:#25BDA4" data-old_color="#3D9AE2"/><path d="m288 368.003906h16v16h-16zm0 0" data-original="#3D9AE2" class="active-path" style="fill:#25BDA4" data-old_color="#3D9AE2"/><path d="m224 336.003906h80v16h-80zm0 0" data-original="#3D9AE2" class="active-path" style="fill:#25BDA4" data-old_color="#3D9AE2"/><path d="m48 312.003906h112v16h-112zm0 0" data-original="#3D9AE2" class="active-path" style="fill:#25BDA4" data-old_color="#3D9AE2"/><path d="m16 312.003906h16v16h-16zm0 0" data-original="#3D9AE2" class="active-path" style="fill:#25BDA4" data-old_color="#3D9AE2"/><path d="m112 344.003906h64v16h-64zm0 0" data-original="#3D9AE2" class="active-path" style="fill:#25BDA4" data-old_color="#3D9AE2"/><path d="m80 344.003906h16v16h-16zm0 0" data-original="#3D9AE2" class="active-path" style="fill:#25BDA4" data-old_color="#3D9AE2"/><path d="m96 376.003906h64v16h-64zm0 0" data-original="#3D9AE2" class="active-path" style="fill:#25BDA4" data-old_color="#3D9AE2"/><path d="m64 376.003906h16v16h-16zm0 0" data-original="#3D9AE2" class="active-path" style="fill:#25BDA4" data-old_color="#3D9AE2"/></g></g> </svg>
